<svg width="164" height="164" viewBox="0 0 164 164" fill="none" xmlns="http://www.w3.org/2000/svg">
<path d="M104.685 22.912C104.503 22.9139 104.322 22.9289 104.143 22.9568C103.934 21.0106 103.013 19.2102 101.558 17.9013C100.102 16.5924 98.2145 15.8673 96.2571 15.8651H41.064C39.1146 15.8676 37.2342 16.5872 35.7811 17.8867C34.328 19.1863 33.4037 20.9749 33.1843 22.912C24.2925 23.1522 17.1399 29.6097 17.1399 37.5246V134.211C17.1399 142.273 24.5647 148.833 33.6904 148.833H104.685C113.81 148.833 121.235 142.273 121.235 134.211V37.5342C121.235 29.4688 113.81 22.912 104.685 22.912ZM40.3978 23.7928C40.3978 23.6161 40.468 23.4467 40.5929 23.3217C40.7179 23.1968 40.8873 23.1266 41.064 23.1266H96.2571C96.4338 23.1266 96.6032 23.1968 96.7282 23.3217C96.8531 23.4467 96.9233 23.6161 96.9233 23.7928V29.9268C96.9233 30.1035 96.8531 30.273 96.7282 30.3979C96.6032 30.5229 96.4338 30.5931 96.2571 30.5931H41.064C40.8873 30.5931 40.7179 30.5229 40.5929 30.3979C40.468 30.273 40.3978 30.1035 40.3978 29.9268V23.7928ZM113.97 134.211C113.97 138.266 109.806 141.578 104.681 141.578H33.6904C28.5654 141.578 24.4014 138.276 24.4014 134.211V37.5342C24.4046 33.6328 28.2772 30.4297 33.1427 30.1895C33.2116 32.2451 34.0761 34.1936 35.5539 35.6242C37.0317 37.0548 39.0072 37.8556 41.064 37.8577H96.2571C98.323 37.856 100.307 37.0485 101.787 35.6069C103.267 34.1653 104.126 32.2034 104.182 30.1382C104.348 30.1623 104.516 30.1751 104.685 30.1766C109.81 30.1766 113.974 33.4759 113.974 37.5438L113.97 134.211Z" fill="#F6F6F7"/>
<path d="M144.099 26.3329H128.814C127.851 26.3329 126.928 26.7151 126.246 27.3956C125.565 28.0762 125.182 28.9992 125.181 29.962V104.534C125.192 115.102 127.754 125.511 132.648 134.877L133.25 136.005C133.558 136.592 134.02 137.084 134.587 137.427C135.154 137.77 135.805 137.951 136.468 137.951C137.131 137.951 137.781 137.77 138.348 137.427C138.915 137.084 139.378 136.592 139.685 136.005L140.278 134.877C145.172 125.511 147.733 115.102 147.744 104.534V29.962C147.744 29.4842 147.649 29.0112 147.466 28.57C147.282 28.1289 147.013 27.7282 146.675 27.3911C146.336 27.054 145.934 26.787 145.492 26.6054C145.05 26.4238 144.577 26.3312 144.099 26.3329V26.3329ZM136.453 125.742C134.308 120.257 133.005 114.48 132.587 108.605H140.319C139.9 114.479 138.596 120.257 136.453 125.742ZM140.464 101.34H132.456V33.5944H140.464V101.34Z" fill="#F6F6F7"/>
<path d="M61.3687 42.8418H42.4414C41.4786 42.8418 40.5552 43.224 39.8741 43.9046C39.193 44.5851 38.8099 45.5081 38.8091 46.4709V65.4014C38.8091 66.3648 39.1918 67.2887 39.873 67.9699C40.5542 68.6511 41.4781 69.0338 42.4414 69.0338H61.3687C62.332 69.0338 63.256 68.6511 63.9371 67.9699C64.6183 67.2887 65.001 66.3648 65.001 65.4014V46.4709C65.001 45.9941 64.9071 45.5219 64.7245 45.0814C64.5419 44.6409 64.2743 44.2407 63.937 43.9036C63.5996 43.5666 63.1992 43.2993 62.7585 43.1171C62.3178 42.9349 61.8455 42.8414 61.3687 42.8418V42.8418ZM57.7395 61.7691H46.0738V50.1033H57.7395V61.7691Z" fill="#F6F6F7"/>
<path d="M61.3687 76.8205H42.4414C41.4781 76.8205 40.5542 77.2032 39.873 77.8844C39.1918 78.5656 38.8091 79.4895 38.8091 80.4529V99.3802C38.8091 99.8572 38.903 100.33 39.0856 100.77C39.2681 101.211 39.5357 101.611 39.873 101.949C40.2103 102.286 40.6107 102.553 41.0514 102.736C41.4921 102.919 41.9644 103.013 42.4414 103.013H61.3687C61.8458 103.013 62.3183 102.919 62.7592 102.737C63.2001 102.554 63.6007 102.287 63.9381 101.95C64.2755 101.612 64.543 101.212 64.7254 100.771C64.9078 100.33 65.0015 99.8573 65.001 99.3802V80.4529C65.001 79.4895 64.6183 78.5656 63.9371 77.8844C63.256 77.2032 62.332 76.8205 61.3687 76.8205V76.8205ZM57.7395 95.751H46.0738V84.0852H57.7395V95.751Z" fill="#F6F6F7"/>
<path d="M95.5236 52.4704H76.875C76.3891 52.456 75.9053 52.5392 75.4522 52.7152C74.999 52.8911 74.5859 53.1563 74.2371 53.4948C73.8883 53.8334 73.611 54.2385 73.4217 54.6862C73.2323 55.1339 73.1348 55.6151 73.1348 56.1011C73.1348 56.5872 73.2323 57.0684 73.4217 57.516C73.611 57.9637 73.8883 58.3689 74.2371 58.7074C74.5859 59.046 74.999 59.3111 75.4522 59.4871C75.9053 59.6631 76.3891 59.7463 76.875 59.7319H95.5204C96.0062 59.7463 96.49 59.6631 96.9432 59.4871C97.3963 59.3111 97.8095 59.046 98.1582 58.7074C98.507 58.3689 98.7843 57.9637 98.9736 57.516C99.163 57.0684 99.2606 56.5872 99.2606 56.1011C99.2606 55.6151 99.163 55.1339 98.9736 54.6862C98.7843 54.2385 98.507 53.8334 98.1582 53.4948C97.8095 53.1563 97.3963 52.8911 96.9432 52.7152C96.49 52.5392 96.0062 52.456 95.5204 52.4704H95.5236Z" fill="#F6F6F7"/>
<path d="M95.5236 86.2858H76.875C75.9117 86.2858 74.9878 86.6685 74.3066 87.3497C73.6254 88.0309 73.2427 88.9548 73.2427 89.9181C73.2427 90.8815 73.6254 91.8054 74.3066 92.4866C74.9878 93.1678 75.9117 93.5505 76.875 93.5505H95.5204C96.4838 93.5505 97.4077 93.1678 98.0889 92.4866C98.7701 91.8054 99.1527 90.8815 99.1527 89.9181C99.1527 88.9548 98.7701 88.0309 98.0889 87.3497C97.4077 86.6685 96.4838 86.2858 95.5204 86.2858H95.5236Z" fill="#F6F6F7"/>
<path d="M61.3687 110.802H42.4414C41.4786 110.802 40.5552 111.185 39.8741 111.865C39.193 112.546 38.8099 113.469 38.8091 114.432V133.362C38.8091 134.325 39.1918 135.249 39.873 135.931C40.5542 136.612 41.4781 136.994 42.4414 136.994H61.3687C62.332 136.994 63.256 136.612 63.9371 135.931C64.6183 135.249 65.001 134.325 65.001 133.362V114.432C65.001 113.955 64.9071 113.483 64.7245 113.042C64.5419 112.602 64.2743 112.201 63.937 111.864C63.5996 111.527 63.1992 111.26 62.7585 111.078C62.3178 110.896 61.8455 110.802 61.3687 110.802V110.802ZM57.7395 129.727H46.0738V118.064H57.7395V129.727Z" fill="#F6F6F7"/>
<path d="M95.5236 120.265H76.875C75.9117 120.265 74.9878 120.647 74.3066 121.328C73.6254 122.01 73.2427 122.934 73.2427 123.897C73.2427 124.86 73.6254 125.784 74.3066 126.465C74.9878 127.147 75.9117 127.529 76.875 127.529H95.5204C96.4838 127.529 97.4077 127.147 98.0889 126.465C98.7701 125.784 99.1527 124.86 99.1527 123.897C99.1527 122.934 98.7701 122.01 98.0889 121.328C97.4077 120.647 96.4838 120.265 95.5204 120.265H95.5236Z" fill="#F6F6F7"/>
</svg>
